<svg class="fill-current" height="100%" width="100%" viewBox="0 0 24 24" fill="none" xmlns="http://www.w3.org/2000/svg">
<path d="M17.25 2.03125C16.5844 2.13461 15.989 2.92688 15.8437 3.9375L15.0312 9.5625C16.0482 9.4275 17.0842 9.355 17.9062 9.5L18.6562 4.34375C18.8212 3.18975 18.3032 2.14225 17.5312 2.03125C17.4346 2.01738 17.3451 2.01649 17.25 2.03125ZM10.1875 2.53125C10.0914 2.53564 9.9981 2.561 9.90623 2.59375C9.17123 2.85475 8.89023 3.9635 9.28123 5.0625L11.2187 10.5313C11.3437 10.4053 11.4932 10.296 11.6562 10.25C12.2432 10.083 13.0565 9.88375 13.9375 9.71875L11.9375 4.09375C11.5954 3.13213 10.8602 2.50053 10.1875 2.53125ZM7.74998 9.28125C7.44985 9.25738 7.12198 9.3515 6.87498 9.5625C6.38098 9.9835 6.32798 10.7238 6.74998 11.2188L9.06248 13.9375C9.48348 14.4315 10.2247 14.4845 10.7187 14.0625C11.2127 13.6405 11.2657 12.9013 10.8437 12.4063L8.53123 9.6875C8.32073 9.44 8.0501 9.30513 7.74998 9.28125ZM16.5937 10.5C15.2417 10.4789 13.4887 10.881 12.4687 11.0625C11.9067 11.1625 11.603 11.7918 11.75 12.3438C11.891 12.8738 12.4207 13.134 12.9687 13.125C13.7637 13.111 16.0625 13.0625 16.0625 13.0625L16.1562 14.3125C16.1562 14.3125 11.8295 16.2043 12.9375 19.0312C10.5535 16.1093 15 13.9375 15 13.9375C15 13.9375 13.6147 14.1363 13.4687 14.1563C12.9497 14.2273 12.1607 14.1098 11.9687 13.8438C11.8997 14.2668 11.7147 14.5903 11.3437 14.9063C10.9457 15.2453 10.456 15.399 9.99998 15.375C10.276 16.031 10.0715 16.8663 9.43748 17.4063C8.67348 18.0573 7.46873 17.8338 6.96873 17.0938C6.62853 16.5908 5.98104 15.3887 5.65623 14.7813L7.18748 16.5625C7.60948 17.0565 8.34973 17.1085 8.84373 16.6875C9.33773 16.2655 9.39073 15.5253 8.96873 15.0313L7.43748 13.25C7.01548 12.756 6.27523 12.703 5.78123 13.125C4.05223 14.245 5.18698 17.6812 5.87498 18.7812C7.21298 20.9232 8.91448 22.149 12.1875 22C15.4865 21.85 17.3652 20.5543 18.4062 16.6563C18.9662 14.5603 19.6212 11.4065 17.7812 10.6875C17.4595 10.5618 17.0444 10.507 16.5937 10.5Z"/>
</svg>
