<svg class="fill-current" height="100%" width="100%" viewBox="0 0 24 24" fill="none" xmlns="http://www.w3.org/2000/svg">
<path d="M22.6667 2.902V21.0981C22.6667 21.5141 22.5014 21.9131 22.2073 22.2073C21.9131 22.5014 21.5141 22.6667 21.0981 22.6667H2.902C2.48598 22.6667 2.08699 22.5014 1.79281 22.2073C1.49864 21.9131 1.33337 21.5141 1.33337 21.0981V2.902C1.33337 2.48598 1.49864 2.08699 1.79281 1.79281C2.08699 1.49864 2.48598 1.33337 2.902 1.33337L21.0981 1.33337C21.5141 1.33337 21.9131 1.49864 22.2073 1.79281C22.5014 2.08699 22.6667 2.48598 22.6667 2.902V2.902ZM7.60788 9.49024H4.47063V19.5295H7.60788V9.49024ZM7.89024 6.03926C7.89189 5.80195 7.84678 5.56664 7.7575 5.34676C7.66821 5.12689 7.53648 4.92675 7.36985 4.75778C7.20321 4.58882 7.00492 4.45433 6.78631 4.36199C6.5677 4.26966 6.33303 4.22129 6.09573 4.21965H6.03926C5.55667 4.21965 5.09384 4.41136 4.7526 4.7526C4.41136 5.09384 4.21965 5.55667 4.21965 6.03926C4.21965 6.52185 4.41136 6.98467 4.7526 7.32591C5.09384 7.66716 5.55667 7.85886 6.03926 7.85886V7.85886C6.27658 7.8647 6.51273 7.82372 6.73421 7.73826C6.95569 7.6528 7.15816 7.52454 7.33006 7.36081C7.50195 7.19707 7.6399 7.00107 7.73601 6.784C7.83213 6.56693 7.88454 6.33305 7.89024 6.09573V6.03926ZM19.5295 13.4306C19.5295 10.4126 17.6095 9.23926 15.702 9.23926C15.0775 9.20798 14.4556 9.341 13.8986 9.62505C13.3415 9.9091 12.8686 10.3342 12.5271 10.8581H12.4393V9.49024H9.49024V19.5295H12.6275V14.1898C12.5821 13.643 12.7544 13.1003 13.1069 12.6797C13.4593 12.2591 13.9635 11.9946 14.5098 11.9436H14.6291C15.6267 11.9436 16.3671 12.571 16.3671 14.1522V19.5295H19.5044L19.5295 13.4306Z"/>
</svg>
