<svg class="fill-current" height="100%" width="100%" viewBox="0 0 168 48" xmlns="http://www.w3.org/2000/svg">
  <path d="M149.495 9.63135C141.307 9.63135 136.182 15.397 136.182 24.5659C136.182 33.7349 141.307 39.4805 149.495 39.4805C157.683 39.4805 162.808 33.7349 162.808 24.5659C162.808 15.397 157.683 9.63135 149.495 9.63135ZM149.495 12.9546C155.4 12.9546 159.104 17.439 159.104 24.5659C159.104 31.6729 155.4 36.1572 149.495 36.1572C143.589 36.1572 139.885 31.6729 139.885 24.5659C139.885 17.439 143.589 12.9546 149.495 12.9546Z"/>
  <path fill-rule="evenodd" clip-rule="evenodd" d="M114 3H118V22.2661L129.656 10.934H135.394L122.805 23.1734L135.363 39H130.257L119.922 25.9759L118 27.845V39H114V3Z"/>
  <path fill-rule="evenodd" clip-rule="evenodd" d="M88 3H92V22.2661L103.656 10.934H109.394L96.805 23.1734L109.363 39H104.257L93.9225 25.9759L92 27.845V39H88V3Z"/>
  <path fill-rule="evenodd" clip-rule="evenodd" d="M80 7C81.6569 7 83 5.65685 83 4C83 2.34315 81.6569 1 80 1C78.3431 1 77 2.34315 77 4C77 5.65685 78.3431 7 80 7ZM78 11V39H82V11H78Z"/>
  <path fill-rule="evenodd" clip-rule="evenodd" d="M69 7C70.6569 7 72 5.65685 72 4C72 2.34315 70.6569 1 69 1C67.3431 1 66 2.34315 66 4C66 5.65685 67.3431 7 69 7ZM67 11V39C67 40.2247 66.7115 41.1458 66.1379 41.7604C65.5886 42.3489 64.455 43 62 43V47C65.145 47 67.5114 46.1511 69.0621 44.4896C70.5885 42.8542 71 40.7753 71 39V11H67Z"/>
  <path fill-rule="evenodd" clip-rule="evenodd" d="M48 7H39V3H61V7H52V39H48V7Z"/>
  <rect x="18" y="3" width="6" height="4"/>
  <rect x="13" y="11" width="14" height="4"/>
  <rect x="9" y="19" width="22" height="4"/>
  <rect x="11" y="27" width="22" height="4"/>
  <rect x="5" y="35" width="32" height="4"/>
  <rect x="17" y="43" width="8" height="4"/>
</svg>
