<svg class="fill-current" height="100%" width="100%" viewBox="0 0 168 48" xmlns="http://www.w3.org/2000/svg">
  <path fill-rule="evenodd" clip-rule="evenodd" d="M162.936 24.635C162.936 33.3792 157.727 39.2148 149.756 39.2148C141.785 39.2148 136.575 33.3792 136.575 24.635C136.575 15.8356 141.785 10 149.756 10C157.727 10 162.936 15.8356 162.936 24.635ZM141.88 24.6166C141.88 30.0472 144.389 34.5942 149.769 34.5942C155.111 34.5942 157.62 30.0472 157.62 24.6166C157.62 19.2044 155.111 14.6022 149.769 14.6022C144.389 14.6022 141.88 19.2044 141.88 24.6166Z"/>
  <path fill-rule="evenodd" clip-rule="evenodd" d="M113.5 2H118.5V21.0765L127.822 12H134.989L123.477 23.2096L134.503 37H128.101L119.877 26.7143L118.5 28.0551V37H113.5V2Z"/>
  <path fill-rule="evenodd" clip-rule="evenodd" d="M88.5 2H93.5V21.0765L102.822 12H109.989L98.4765 23.2096L109.503 37H103.101L94.877 26.7143L93.5 28.0551V37H88.5V2Z"/>
  <path d="M80.95 8.5C83.0211 8.5 84.7 6.82107 84.7 4.75C84.7 2.67893 83.0211 1 80.95 1C78.8789 1 77.2 2.67893 77.2 4.75C77.2 6.82107 78.8789 8.5 80.95 8.5Z"/>
  <path d="M78.5 11V37H83.5V11H78.5Z"/>
  <path d="M70.95 8.5C73.0211 8.5 74.7 6.82107 74.7 4.75C74.7 2.67893 73.0211 1 70.95 1C68.8789 1 67.2 2.67893 67.2 4.75C67.2 6.82107 68.8789 8.5 70.95 8.5Z"/>
  <path d="M68.5 12V38.75C68.5 40.5449 67.0449 42 65.25 42H62.5V47H65.25C69.8063 47 73.5 43.3064 73.5 38.75V12H68.5Z"/>
  <path fill-rule="evenodd" clip-rule="evenodd" d="M48 7H38V2H63V7H53V37H48V7Z"/>
  <rect x="18.5" y="2" width="6" height="5"/>
  <rect x="9.5" y="12" width="20" height="5"/>
  <rect x="11.5" y="22" width="24" height="5"/>
  <rect x="5.5" y="32" width="32" height="5"/>
  <rect x="17.5" y="42" width="8" height="5"/>
</svg>
