<svg class="fill-current" height="100%" width="100%" viewBox="0 0 168 48" xmlns="http://www.w3.org/2000/svg">
  <path d="M167.261 24.4545C167.261 14.9375 161.352 9.51135 153.639 9.51135C145.884 9.51135 140.017 14.9375 140.017 24.4545C140.017 33.929 145.884 39.3977 153.639 39.3977C161.352 39.3977 167.261 33.9716 167.261 24.4545ZM161.026 24.4545C161.026 30.6193 158.099 33.9574 153.639 33.9574C149.165 33.9574 146.253 30.6193 146.253 24.4545C146.253 18.2898 149.165 14.9517 153.639 14.9517C158.099 14.9517 161.026 18.2898 161.026 24.4545Z"/>
  <path fill-rule="evenodd" clip-rule="evenodd" d="M88 3H94V19.8883L102.096 12H110.694L99.0408 23.354L110.742 38H103.062L94.7225 27.5615L94 28.2655V38H88V3Z"/>
  <path fill-rule="evenodd" clip-rule="evenodd" d="M116 3H122V19.8883L130.096 12H138.694L127.041 23.354L138.742 38H131.062L122.723 27.5615L122 28.2655V38H116V3Z"/>
  <path fill-rule="evenodd" clip-rule="evenodd" d="M76 38V12H82V38H76Z"/>
  <path d="M83 4C83 6.20914 81.2091 8 79 8C76.7909 8 75 6.20914 75 4C75 1.79086 76.7909 0 79 0C81.2091 0 83 1.79086 83 4Z"/>
  <path d="M71 4C71 6.20914 69.2091 8 67 8C64.7909 8 63 6.20914 63 4C63 1.79086 64.7909 0 67 0C69.2091 0 71 1.79086 71 4Z"/>
  <path fill-rule="evenodd" clip-rule="evenodd" d="M64 37.5V12H70V37.5C70 43.299 65.299 48 59.5 48H58V42H59.5C61.9853 42 64 39.9853 64 37.5Z"/>
  <path fill-rule="evenodd" clip-rule="evenodd" d="M44 8H36V2H58V8H50V38H44V8Z"/>
  <path d="M14 2H20V8H14V2Z"/>
  <path d="M5 12H25V18H5V12Z"/>
  <path d="M7 22H31V28H7V22Z"/>
  <path d="M1 32H33V38H1V32Z"/>
  <path d="M13 42H21V48H13V42Z"/>
</svg>