<svg class="fill-current" height="100%" width="100%" viewBox="0 0 24 24" fill="none" xmlns="http://www.w3.org/2000/svg">
<path d="M22.6667 4.71966C21.8822 5.06729 21.0394 5.30217 20.1534 5.40834C21.0573 4.86717 21.7506 4.00842 22.0776 2.98619C21.232 3.48791 20.2953 3.85246 19.2984 4.04788C18.4998 3.19853 17.363 2.66675 16.104 2.66675C13.6875 2.66675 11.7276 4.62664 11.7276 7.04503C11.7276 7.38703 11.767 7.71963 11.8403 8.04095C8.20146 7.85774 4.97787 6.11488 2.8188 3.46724C2.44298 4.11553 2.22688 4.86717 2.22688 5.66766C2.22688 7.18596 3.00013 8.5267 4.17362 9.31122C3.45581 9.28773 2.78121 9.09136 2.19118 8.76346V8.81984C2.19118 10.9404 3.69915 12.7096 5.70226 13.1117C5.33396 13.2113 4.94781 13.2639 4.54944 13.2639C4.26758 13.2639 3.99229 13.2376 3.72546 13.1868C4.28261 14.925 5.89863 16.1915 7.81436 16.2253C6.31579 17.3998 4.42824 18.0997 2.37815 18.0997C2.02488 18.0997 1.67631 18.0791 1.33337 18.0387C3.27072 19.2817 5.57073 20.0051 8.04173 20.0051C16.0936 20.0051 20.4954 13.3362 20.4954 7.55239C20.4954 7.36448 20.4907 7.17469 20.4823 6.98678C21.3372 6.36856 22.0795 5.59907 22.6648 4.72247L22.6667 4.71966Z"/>
</svg>
